<?xml version="1.0" encoding="UTF-8"?>
<!DOCTYPE svg  PUBLIC '-//W3C//DTD SVG 1.1//EN'  'http://www.w3.org/Graphics/SVG/1.1/DTD/svg11.dtd'>
<svg clip-rule="evenodd" fill-rule="evenodd" stroke-linejoin="round" stroke-miterlimit="2" version="1.1" viewBox="0 0 100 100" xml:space="preserve" xmlns="http://www.w3.org/2000/svg">
    <g transform="matrix(1.5357 0 0 1.5357 .5 .34489)">
        <path d="m31.26 62.776-14.27-5.12v-20.91l14.27 4.86v21.17zm2.6 0 14.27-5.12v-20.91l-14.27 4.864v21.166zm-15.4-27.6 14.4-4.066 13.392 4.32-13.392 4.546-14.4-4.8zm-4.184-1.6-14.276-5.136v-20.94l14.27 4.86 6e-3 21.216zm2.614 0 14.27-5.12v-20.956l-14.274 4.884 4e-3 21.192zm-15.4-27.6 14.4-4.086 13.392 4.32-13.392 4.546-14.4-4.78zm46.104 27.6-14.27-5.12v-20.956l14.27 4.86v21.216zm2.6 0 14.27-5.12v-20.956l-14.27 4.86v21.216zm-15.4-27.6 14.4-4.066 13.392 4.32-13.392 4.546-14.4-4.8z"/>
    </g>
</svg>
