<?xml version="1.0" encoding="UTF-8"?>
<!DOCTYPE svg  PUBLIC '-//W3C//DTD SVG 1.1//EN'  'http://www.w3.org/Graphics/SVG/1.1/DTD/svg11.dtd'>
<svg clip-rule="evenodd" fill-rule="evenodd" stroke-linecap="round" stroke-linejoin="round" stroke-miterlimit="1.5" version="1.1" viewBox="0 0 100 100" xml:space="preserve" xmlns="http://www.w3.org/2000/svg">
    <g transform="matrix(1.0432 0 0 1.0609 -2.304 -1.8443)">
        <path d="m95.666 8.572c0-2.471-2.04-4.477-4.553-4.477h-81.955c-2.513 0-4.553 2.006-4.553 4.477v80.593c0 2.471 2.04 4.477 4.553 4.477h81.955c2.513 0 4.553-2.006 4.553-4.477v-80.593z" fill="none" stroke="#000" stroke-width=".79px"/>
    </g>
    <g transform="matrix(.67546 0 0 .67546 -.68294 -.60752)">
        
            <g transform="matrix(-1 0 0 1 150.06 -.1237)">
                <ellipse cx="75.028" cy="75.062" rx="57.441" ry="56.988" stroke="#000" stroke-miterlimit="10" stroke-width="8.66px"/>
            </g>
            <g transform="matrix(0 1 1 0 -9.9304 9.7734)">
                <path d="m16.96 75.078h96.377" fill="none" stroke="#fff" stroke-miterlimit="10" stroke-width="11.56px"/>
            </g>
            <g transform="translate(-2.2204e-16 -.0522)">
                <path d="m108.32 114.42s-66.358-26.342-66.358-39.273 66.358-39.513 66.358-39.513" fill="none" stroke="#fff" stroke-miterlimit="10" stroke-width="11.41px"/>
            </g>
        
    </g>
</svg>
