<?xml version="1.0" encoding="UTF-8" standalone="no"?>
<!DOCTYPE svg PUBLIC "-//W3C//DTD SVG 1.1//EN" "http://www.w3.org/Graphics/SVG/1.1/DTD/svg11.dtd">
<svg width="100%" height="100%" viewBox="0 0 100 100" version="1.1" xmlns="http://www.w3.org/2000/svg" xmlns:xlink="http://www.w3.org/1999/xlink" xml:space="preserve" xmlns:serif="http://www.serif.com/" style="fill-rule:evenodd;clip-rule:evenodd;stroke-linecap:round;stroke-linejoin:round;stroke-miterlimit:1.5;">
    <g id="alice" transform="matrix(0.715414,-0.174267,0.174267,0.715414,8.32133,22.8223)">
        <g transform="matrix(1,0,0,1,-29.3745,21.4807)">
            <path d="M11.399,51.238L12.189,49.929L9.998,48.964L11.399,51.238Z" style="fill-rule:nonzero;"/>
        </g>
        <g transform="matrix(-0.718961,-0.69505,-0.69505,0.718961,28.4637,51.5358)">
            <path d="M13.309,48.004L15.626,48.004L16.229,45.59L14.43,44.929L13.309,48.004Z" style="fill-rule:nonzero;"/>
        </g>
        <g transform="matrix(0.783776,0.621044,0.621044,-0.783776,-52.1167,100.245)">
            <path d="M18.143,41.515L22.269,41.515L19.666,46.53L17.002,45.592L18.143,41.515Z" style="fill-rule:nonzero;"/>
        </g>
        <g transform="matrix(0.919883,0.392193,0.392193,-0.919883,-43.1737,108.231)">
            <path d="M23.777,37.812L30.094,37.812L27.726,44.468L22.852,43.572L23.777,37.812Z" style="fill-rule:nonzero;"/>
        </g>
        <g transform="matrix(0.988359,0.152137,0.152137,-0.988359,-34.8737,115.937)">
            <path d="M31.977,35.185L38.728,35.185L36.853,42.797L31.438,42.522L31.977,35.185Z" style="fill-rule:nonzero;"/>
        </g>
        <g transform="matrix(0.0701897,0.997534,0.997534,-0.0701897,-26.9096,41.508)">
            <path d="M40.389,35.348L48.152,35.348L47.888,42.196L40.262,41.259L40.389,35.348Z" style="fill-rule:nonzero;"/>
        </g>
        <g transform="matrix(0.203722,0.979029,0.979029,-0.203722,-26.0518,36.6117)">
            <path d="M50.015,36.58L58.453,36.58L58.9,44.198L49.318,43.702L50.015,36.58Z" style="fill-rule:nonzero;"/>
        </g>
        <g transform="matrix(0.915081,-0.403271,-0.403271,-0.915081,-6.10309,144.294)">
            <path d="M60.323,49.018L70.915,49.018L69.697,37.448L59.019,39.2L60.323,49.018Z" style="fill-rule:nonzero;"/>
        </g>
        <g transform="matrix(0.855428,-0.517922,-0.517922,-0.855428,7.09981,154.667)">
            <path d="M73.43,54.928L83.269,54.928L80.107,40.93L70.956,43.007L73.43,54.928Z" style="fill-rule:nonzero;"/>
        </g>
        <g transform="matrix(1,0,0,1,-29.3745,-67.8962)">
            <path d="M138.509,95.576L139.934,96.118L139.642,93.46L138.509,95.576Z" style="fill-rule:nonzero;"/>
        </g>
        <g transform="matrix(0.882832,0.46969,0.46969,-0.882832,-55.2875,46.1705)">
            <path d="M137.016,88.87L140.28,88.87L139.49,91.052L137.024,90.792L137.016,88.87Z" style="fill-rule:nonzero;"/>
        </g>
        <g transform="matrix(0.753238,0.657748,0.657748,-0.753238,-50.8864,11.166)">
            <path d="M134.129,82.714L139.767,82.714L137.859,86.383L133.73,85.515L134.129,82.714Z" style="fill-rule:nonzero;"/>
        </g>
        <g transform="matrix(-0.48316,0.875532,0.875532,0.48316,100.331,-109.785)">
            <path d="M130.452,80.359L136.783,80.359L134.406,73.721L129.52,74.616L130.452,80.359Z" style="fill-rule:nonzero;"/>
        </g>
        <g transform="matrix(-0.683988,0.729493,0.729493,0.683988,134.269,-90.8395)">
            <path d="M124.995,74.216L131.761,74.216L129.861,66.618L124.433,66.897L124.995,74.216Z" style="fill-rule:nonzero;"/>
        </g>
        <g transform="matrix(-0.839638,0.543146,0.543146,0.839638,157.201,-63.8099)">
            <path d="M117.662,61.154L123.582,61.154L124.395,68.789L117.536,68.908L117.662,61.154Z" style="fill-rule:nonzero;"/>
        </g>
        <g transform="matrix(-0.934646,0.355579,0.355579,0.934646,165.699,-34.3253)">
            <path d="M108.463,55.296L115.619,55.296L115.234,64.877L107.686,63.697L108.463,55.296Z" style="fill-rule:nonzero;"/>
        </g>
        <g transform="matrix(-0.968734,0.248101,0.248101,0.968734,155.33,-12.711)">
            <path d="M95.941,49.815L106.527,49.815L105.368,61.387L94.687,59.637L95.941,49.815Z" style="fill-rule:nonzero;"/>
        </g>
        <g transform="matrix(-0.99266,0.120941,0.120941,0.99266,140.222,7.84213)">
            <path d="M84.424,44.824L94.253,44.824L91.161,58.835L82.013,56.756L84.424,44.824Z" style="fill-rule:nonzero;"/>
        </g>
        <g transform="matrix(1,0,0,1,-29.3745,-58.2715)">
            <path d="M47.361,97.2C44.519,103.576 42.135,94.98 42.135,94.98C42.135,94.98 42.206,95.184 41.236,91.266C39.82,85.56 49.146,93.19 47.36,97.2M60.009,92.218C60.009,92.218 39.315,69.468 31.269,92.263C24.831,110.486 60.524,102.39 60.009,92.218" style="fill-rule:nonzero;"/>
        </g>
        <g transform="matrix(1,0,0,1,-29.3745,-89.6085)">
            <path d="M93.37,112.092C89.504,110.036 92.176,98.259 94.558,103.63C96.196,107.318 96.125,107.113 96.125,107.113C96.125,107.113 99.518,115.36 93.37,112.091M102.115,99.106C81.795,86.119 79.437,116.837 79.437,116.837C85.268,125.172 118.358,109.487 102.115,99.106" style="fill-rule:nonzero;"/>
        </g>
        <g transform="matrix(0.881564,0.472065,0.472065,-0.881564,-57.7094,75.8503)">
            <path d="M77.171,76.79C76.572,76.742 76.087,77.87 76.087,79.302C76.087,80.735 76.572,81.936 77.171,81.981C77.771,82.028 78.255,80.9 78.256,79.468C78.254,78.032 77.77,76.833 77.171,76.79" style="fill-rule:nonzero;"/>
        </g>
        <g transform="matrix(0.403777,-0.914857,-0.914857,-0.403777,83.3767,140.379)">
            <path d="M70.72,74.565C71.32,74.519 71.807,75.643 71.806,77.074C71.807,78.504 71.321,79.699 70.72,79.746C70.12,79.792 69.633,78.667 69.633,77.237C69.633,75.808 70.12,74.611 70.72,74.565" style="fill-rule:nonzero;"/>
        </g>
    </g>
    <g transform="matrix(1.04325,0,0,1.06089,-2.30403,-1.84431)">
        <path d="M95.666,8.572C95.666,6.101 93.626,4.095 91.113,4.095L9.158,4.095C6.645,4.095 4.605,6.101 4.605,8.572L4.605,89.165C4.605,91.636 6.645,93.642 9.158,93.642L91.113,93.642C93.626,93.642 95.666,91.636 95.666,89.165L95.666,8.572Z" style="fill:none;stroke:black;stroke-width:0.79px;"/>
    </g>
</svg>
