<?xml version="1.0" encoding="UTF-8"?>
<!DOCTYPE svg  PUBLIC '-//W3C//DTD SVG 1.1//EN'  'http://www.w3.org/Graphics/SVG/1.1/DTD/svg11.dtd'>
<svg clip-rule="evenodd" fill-rule="evenodd" stroke-linecap="round" stroke-linejoin="round" stroke-miterlimit="1.5" version="1.1" viewBox="0 0 100 100" xml:space="preserve" xmlns="http://www.w3.org/2000/svg">
    <g transform="matrix(.71541 -.17427 .17427 .71541 8.3213 22.822)">
        <g transform="translate(-29.374 21.481)">
            <path d="m11.399 51.238 0.79-1.309-2.191-0.965 1.401 2.274z" fill-rule="nonzero"/>
        </g>
        <g transform="matrix(-.71896 -.69505 -.69505 .71896 28.464 51.536)">
            <path d="m13.309 48.004h2.317l0.603-2.414-1.799-0.661-1.121 3.075z" fill-rule="nonzero"/>
        </g>
        <g transform="matrix(.78378 .62104 .62104 -.78378 -52.117 100.24)">
            <path d="m18.143 41.515h4.126l-2.603 5.015-2.664-0.938 1.141-4.077z" fill-rule="nonzero"/>
        </g>
        <g transform="matrix(.91988 .39219 .39219 -.91988 -43.174 108.23)">
            <path d="m23.777 37.812h6.317l-2.368 6.656-4.874-0.896 0.925-5.76z" fill-rule="nonzero"/>
        </g>
        <g transform="matrix(.98836 .15214 .15214 -.98836 -34.874 115.94)">
            <path d="m31.977 35.185h6.751l-1.875 7.612-5.415-0.275 0.539-7.337z" fill-rule="nonzero"/>
        </g>
        <g transform="matrix(.07019 .99753 .99753 -.07019 -26.91 41.508)">
            <path d="m40.389 35.348h7.763l-0.264 6.848-7.626-0.937 0.127-5.911z" fill-rule="nonzero"/>
        </g>
        <g transform="matrix(.20372 .97903 .97903 -.20372 -26.052 36.612)">
            <path d="m50.015 36.58h8.438l0.447 7.618-9.582-0.496 0.697-7.122z" fill-rule="nonzero"/>
        </g>
        <g transform="matrix(.91508 -.40327 -.40327 -.91508 -6.1031 144.29)">
            <path d="m60.323 49.018h10.592l-1.218-11.57-10.678 1.752 1.304 9.818z" fill-rule="nonzero"/>
        </g>
        <g transform="matrix(.85543 -.51792 -.51792 -.85543 7.0998 154.67)">
            <path d="m73.43 54.928h9.839l-3.162-13.998-9.151 2.077 2.474 11.921z" fill-rule="nonzero"/>
        </g>
        <g transform="translate(-29.374 -67.896)">
            <path d="m138.51 95.576 1.425 0.542-0.292-2.658-1.133 2.116z" fill-rule="nonzero"/>
        </g>
        <g transform="matrix(.88283 .46969 .46969 -.88283 -55.288 46.17)">
            <path d="m137.02 88.87h3.264l-0.79 2.182-2.466-0.26-8e-3 -1.922z" fill-rule="nonzero"/>
        </g>
        <g transform="matrix(.75324 .65775 .65775 -.75324 -50.886 11.166)">
            <path d="m134.13 82.714h5.638l-1.908 3.669-4.129-0.868 0.399-2.801z" fill-rule="nonzero"/>
        </g>
        <g transform="matrix(-.48316 .87553 .87553 .48316 100.33 -109.78)">
            <path d="m130.45 80.359h6.331l-2.377-6.638-4.886 0.895 0.932 5.743z" fill-rule="nonzero"/>
        </g>
        <g transform="matrix(-.68399 .72949 .72949 .68399 134.27 -90.84)">
            <path d="m125 74.216h6.766l-1.9-7.598-5.428 0.279 0.562 7.319z" fill-rule="nonzero"/>
        </g>
        <g transform="matrix(-.83964 .54315 .54315 .83964 157.2 -63.81)">
            <path d="m117.66 61.154h5.92l0.813 7.635-6.859 0.119 0.126-7.754z" fill-rule="nonzero"/>
        </g>
        <g transform="matrix(-.93465 .35558 .35558 .93465 165.7 -34.325)">
            <path d="m108.46 55.296h7.156l-0.385 9.581-7.548-1.18 0.777-8.401z" fill-rule="nonzero"/>
        </g>
        <g transform="matrix(-.96873 .2481 .2481 .96873 155.33 -12.711)">
            <path d="m95.941 49.815h10.586l-1.159 11.572-10.681-1.75 1.254-9.822z" fill-rule="nonzero"/>
        </g>
        <g transform="matrix(-.99266 .12094 .12094 .99266 140.22 7.8421)">
            <path d="m84.424 44.824h9.829l-3.092 14.011-9.148-2.079 2.411-11.932z" fill-rule="nonzero"/>
        </g>
        <g transform="translate(-29.374 -58.272)">
            <path d="m47.361 97.2c-2.842 6.376-5.226-2.22-5.226-2.22s0.071 0.204-0.899-3.714c-1.416-5.706 7.91 1.924 6.124 5.934m12.649-4.982s-20.694-22.75-28.74 0.045c-6.438 18.223 29.255 10.127 28.74-0.045" fill-rule="nonzero"/>
        </g>
        <g transform="translate(-29.374 -89.608)">
            <path d="m93.37 112.09c-3.866-2.056-1.194-13.833 1.188-8.462 1.638 3.688 1.567 3.483 1.567 3.483s3.393 8.247-2.755 4.978m8.745-12.985c-20.32-12.987-22.678 17.731-22.678 17.731 5.831 8.335 38.921-7.35 22.678-17.731" fill-rule="nonzero"/>
        </g>
        <g transform="matrix(.88156 .47206 .47206 -.88156 -57.709 75.85)">
            <path d="m77.171 76.79c-0.599-0.048-1.084 1.08-1.084 2.512 0 1.433 0.485 2.634 1.084 2.679 0.6 0.047 1.084-1.081 1.085-2.513-2e-3 -1.436-0.486-2.635-1.085-2.678" fill-rule="nonzero"/>
        </g>
        <g transform="matrix(.40378 -.91486 -.91486 -.40378 83.377 140.38)">
            <path d="m70.72 74.565c0.6-0.046 1.087 1.078 1.086 2.509 1e-3 1.43-0.485 2.625-1.086 2.672-0.6 0.046-1.087-1.079-1.087-2.509 0-1.429 0.487-2.626 1.087-2.672" fill-rule="nonzero"/>
        </g>
    </g>
    <g transform="matrix(1.0432 0 0 1.0609 -2.304 -1.8443)">
        <path d="m95.666 8.572c0-2.471-2.04-4.477-4.553-4.477h-81.955c-2.513 0-4.553 2.006-4.553 4.477v80.593c0 2.471 2.04 4.477 4.553 4.477h81.955c2.513 0 4.553-2.006 4.553-4.477v-80.593z" fill="none" stroke="#000" stroke-width=".79px"/>
    </g>
</svg>
