<?xml version="1.0" encoding="UTF-8"?>
<!DOCTYPE svg  PUBLIC '-//W3C//DTD SVG 1.1//EN'  'http://www.w3.org/Graphics/SVG/1.1/DTD/svg11.dtd'>
<svg clip-rule="evenodd" fill-rule="evenodd" stroke-linecap="round" stroke-linejoin="round" stroke-miterlimit="10" version="1.1" viewBox="0 0 100 100" xml:space="preserve" xmlns="http://www.w3.org/2000/svg">
    <g transform="matrix(.23148 0 0 .23148 -.6944 37.061)">
        <path d="m41.071 74.477c0-6.969 5.641-12.618 12.6-12.618 4.081 0 7.697 1.951 10 4.964 5.569-9.111 12.283-16.97 19.913-23.729-3.78-3.658-9.922-6.33-19.563-7.625-31.05-4.174-46.917 11.166-50.542 31.725-3.498 19.838 7.171 41.143 31.004 46.682 2.46-9.685 5.474-18.569 8.95-26.793-6.848-0.129-12.362-5.718-12.362-12.606z" fill="none" stroke="#000" stroke-width="6px"/>
        <path d="m53.671 61.859c-6.959 0-12.6 5.649-12.6 12.618 0 6.888 5.514 12.477 12.362 12.605 2.479-5.866 5.191-11.399 8.112-16.638 0.687-1.231 1.4-2.434 2.126-3.622-2.303-3.012-5.92-4.963-10-4.963z" fill-rule="nonzero"/>
        <path d="m413.98 59.094c-3.625-20.56-19.492-35.899-50.541-31.725-10.765 1.447-17.166 4.61-20.789 8.945 6.867 5.93 13.257 12.745 19.272 20.518 0.292 0.377 0.57 0.758 0.857 1.136 2.296-3.095 5.963-5.109 10.108-5.109 6.959 0 12.6 5.649 12.6 12.618 0 6.109-4.335 11.202-10.093 12.366 4.277 8.283 7.745 17.199 10.521 27.142 21.763-6.551 31.416-26.89 28.065-45.891z" fill="none" stroke="#000" stroke-width="6px"/>
        <path d="m385.49 65.477c0-6.969-5.641-12.618-12.6-12.618-4.146 0-7.812 2.014-10.108 5.109 4.815 6.345 9.007 12.886 12.615 19.875 5.758-1.164 10.093-6.257 10.093-12.366z" fill-rule="nonzero"/>
        <path d="m362.78 57.968c-0.287-0.378-0.565-0.759-0.857-1.136-6.016-7.773-12.405-14.588-19.272-20.518-29.797-25.728-68.582-34.79-124.73-33.123-48.682 1.447-100.47 9.906-134.34 39.903-7.63 6.758-14.343 14.617-19.913 23.729-0.726 1.188-1.439 2.391-2.126 3.622-2.921 5.239-5.633 10.771-8.112 16.638-3.476 8.224-6.49 17.108-8.95 26.793-4.767 18.77-7.463 40.533-7.462 66.257 2e-3 45.133 8.866 67.528 8.332 110.88-0.035 2.846-0.11 5.782-0.231 8.821-0.204 5.119-0.383 10.249-0.543 15.375-1.653 53.107-1.062 105.86-1.499 142.04-0.401 33.204 14.646 62.704 41.845 84.433 10.752 8.59 23.402 15.965 37.752 21.871 25.113 10.337 55.418 16.186 89.844 16.186 50.265 0 87.456-9.652 114.68-24.336 11.459-6.178 21.149-13.249 29.308-20.867 20.359-19.008 31.17-41.422 36.009-61.896 11.47-48.523 9.966-84.08 4.831-158.37-0.103-1.496-0.207-3.002-0.313-4.529-0.588-8.453-1.022-15.947-1.339-22.763-1.733-37.343 0.064-54.317-0.479-96.937-0.463-36.271-3.195-63.161-9.306-85.047-2.776-9.942-6.244-18.858-10.521-27.142-3.61-6.992-7.801-13.534-12.617-19.878z" fill="none" stroke="#000" stroke-width="6px"/>
        <ellipse cx="144.12" cy="91.595" rx="54.9" ry="53.1" fill="none" stroke="#000" stroke-width="6px"/>
        <circle cx="115.32" cy="94.294" r="18.9"/>
        <circle cx="123.42" cy="98.794" r="5.4" fill="#fff"/>
        <ellipse cx="281.82" cy="85.294" rx="54.9" ry="53.1" fill="none" stroke="#000" stroke-width="6px"/>
        <circle cx="253.02" cy="87.995" r="18.9"/>
        <circle cx="261.12" cy="92.495" r="5.4" fill="#fff"/>
        <path d="m214.97 170.34c-10.784 0.188-12.401 4.999-21.685 6.657-0.328 5.727-0.745 13.566-1.163 22.896-0.9 20.1 24.6 15.6 24.6 3.6v-33.132c-0.56-0.021-1.137-0.031-1.752-0.021z" fill="none" stroke="#000" stroke-width="6px"/>
        <path d="m216.72 203.5c0 12 25.5 16.5 24.6-3.6-0.429-9.582-0.857-17.59-1.189-23.353-11.689-0.533-13.115-5.813-23.411-6.179v33.132z" fill="none" stroke="#000" stroke-width="6px"/>
        <path d="m254.67 150.3c-4.354-4.685-9.521-7.238-16.425-8.471-3.664 5.366-12.791 9.169-23.479 9.169-10.278 0-19.112-3.518-23.034-8.56-7.391 1.417-12.753 4.185-17.15 9.26-8.627 9.959-4.437 24.891 7.156 25.695 4.957 0.344 8.624 0.131 11.541-0.391 9.284-1.658 10.901-6.469 21.685-6.657 0.615-0.01 1.192 0 1.752 0.02 10.295 0.366 11.721 5.646 23.411 6.179 2.312 0.105 5.024 0.026 8.289-0.316 11.559-1.207 15.225-16.276 6.254-25.928z" fill="none" stroke="#000" stroke-width="6px"/>
        <path d="m214.77 151c10.688 0 19.814-3.803 23.479-9.169 1.107-1.622 1.722-3.385 1.722-5.231 0-7.953-11.281-14.4-25.2-14.4-13.917 0-25.2 6.447-25.2 14.4 0 2.08 0.778 4.054 2.166 5.84 3.92 5.042 12.755 8.56 23.033 8.56z" fill-rule="nonzero"/>
    </g>
</svg>
