<?xml version="1.0" encoding="UTF-8" standalone="no"?>
<!DOCTYPE svg PUBLIC "-//W3C//DTD SVG 1.1//EN" "http://www.w3.org/Graphics/SVG/1.1/DTD/svg11.dtd">
<svg width="100%" height="100%" viewBox="0 0 100 100" version="1.1" xmlns="http://www.w3.org/2000/svg" xmlns:xlink="http://www.w3.org/1999/xlink" xml:space="preserve" xmlns:serif="http://www.serif.com/" style="fill-rule:evenodd;clip-rule:evenodd;stroke-linejoin:round;stroke-miterlimit:2;">
    <g id="nginx" transform="matrix(1.54697,0,0,1.54697,0.495809,0.50041)">
        <path d="M4.116,47.314L4.116,16.772C4.085,16.223 4.39,15.708 4.886,15.47L31.232,0.254C31.706,-0.042 32.238,-0.102 32.712,0.194L59.176,15.468C59.638,15.734 59.913,16.238 59.886,16.77L59.886,47.26C59.913,47.792 59.638,48.296 59.176,48.562L36.442,61.702C35.251,62.415 34.047,63.106 32.83,63.774C32.298,64.07 31.764,64.07 31.23,63.774L4.826,48.558C4.352,48.262 4.116,47.906 4.116,47.314ZM22.764,26.36L22.76,26.338C22.82,26.398 22.88,26.458 22.88,26.518L37.86,44.458C38.394,45.05 38.808,45.702 39.4,46.234C40.478,47.211 41.856,47.795 43.308,47.892C44.312,47.952 45.26,47.834 46.148,47.36C47.332,46.708 47.984,45.68 47.984,44.28L47.984,19.08C47.748,17.36 46.208,15.704 43.9,16C42.06,16.178 40.76,17.658 40.76,19.552L40.76,37.552C40.644,37.436 40.584,37.316 40.524,37.256L24.776,18.37C23.966,17.422 23.02,16.654 21.776,16.298C20.472,15.884 19.17,15.764 17.868,16.298C16.566,16.832 15.56,18.012 15.56,19.672L15.56,44.398C15.56,45.05 15.678,45.642 16.034,46.174C16.726,47.298 17.734,47.83 19.034,47.89C21.164,47.948 22.764,46.172 22.764,44.16L22.764,26.36Z"/>
    </g>
</svg>
