<?xml version="1.0" encoding="UTF-8"?>
<!DOCTYPE svg  PUBLIC '-//W3C//DTD SVG 1.1//EN'  'http://www.w3.org/Graphics/SVG/1.1/DTD/svg11.dtd'>
<svg clip-rule="evenodd" fill-rule="evenodd" stroke-linejoin="round" stroke-miterlimit="2" version="1.1" viewBox="0 0 100 100" xml:space="preserve" xmlns="http://www.w3.org/2000/svg">
    <g transform="matrix(1.547 0 0 1.547 .49581 .50041)">
        <path d="m4.116 47.314v-30.542c-0.031-0.549 0.274-1.064 0.77-1.302l26.346-15.216c0.474-0.296 1.006-0.356 1.48-0.06l26.464 15.274c0.462 0.266 0.737 0.77 0.71 1.302v30.49c0.027 0.532-0.248 1.036-0.71 1.302l-22.734 13.14c-1.191 0.713-2.395 1.404-3.612 2.072-0.532 0.296-1.066 0.296-1.6 0l-26.404-15.216c-0.474-0.296-0.71-0.652-0.71-1.244zm18.648-20.954-4e-3 -0.022c0.06 0.06 0.12 0.12 0.12 0.18l14.98 17.94c0.534 0.592 0.948 1.244 1.54 1.776 1.078 0.977 2.456 1.561 3.908 1.658 1.004 0.06 1.952-0.058 2.84-0.532 1.184-0.652 1.836-1.68 1.836-3.08v-25.2c-0.236-1.72-1.776-3.376-4.084-3.08-1.84 0.178-3.14 1.658-3.14 3.552v18c-0.116-0.116-0.176-0.236-0.236-0.296l-15.748-18.886c-0.81-0.948-1.756-1.716-3-2.072-1.304-0.414-2.606-0.534-3.908 0s-2.308 1.714-2.308 3.374v24.726c0 0.652 0.118 1.244 0.474 1.776 0.692 1.124 1.7 1.656 3 1.716 2.13 0.058 3.73-1.718 3.73-3.73v-17.8z"/>
    </g>
</svg>
