<?xml version="1.0" encoding="UTF-8"?>
<!DOCTYPE svg  PUBLIC '-//W3C//DTD SVG 1.1//EN'  'http://www.w3.org/Graphics/SVG/1.1/DTD/svg11.dtd'>
<svg clip-rule="evenodd" fill-rule="evenodd" stroke-linecap="round" stroke-linejoin="round" stroke-miterlimit="1.5" version="1.1" viewBox="0 0 100 100" xml:space="preserve" xmlns="http://www.w3.org/2000/svg">
    <g transform="matrix(1.0432 0 0 1.0609 -2.304 -1.8443)">
        <path d="m95.666 8.572c0-2.471-2.04-4.477-4.553-4.477h-81.955c-2.513 0-4.553 2.006-4.553 4.477v80.593c0 2.471 2.04 4.477 4.553 4.477h81.955c2.513 0 4.553-2.006 4.553-4.477v-80.593z" fill="none" stroke="#000" stroke-width=".79px"/>
    </g>
    <g transform="matrix(.20603 0 0 .20603 39.698 39.698)">
        <g transform="translate(-168.41 -58.04)">
            <path d="m252.98 43.369c-1.239 3.962-3.375 7.312-6.097 10.185h0.184s-0.167 0.109-0.427 0.276c-6.014 6.207-14.75 10.026-22.949 12.405-0.444 0.209-0.88 0.427-1.324 0.636-2.445 1.097-5.326 0.821-7.739-0.285-0.142-0.058-0.268-0.125-0.41-0.192-10.712-3.208-21.76-8.46-27.707-18.351-2.973-4.9-3.4-12.957 2.404-15.972 7.186-4.473 16.266 0.251 20.445 6.7 2.722 4.54 4.213 9.59 5 14.783h8.971c0.686-4.724 1.901-9.322 4.213-13.552 3.3-6.055 10.218-10.67 17.304-9.481 5.812 0.796 10.268 7.211 8.132 12.848m7.505 2.965c0.042-4.623 1.147-9.724-1.374-13.92-3.869-7.404-13.208-11.324-21.232-9.088-8.903 1.935-15.788 9.071-19.071 17.363-3.124-8.007-9.641-14.925-18.125-17.136-8.325-2.63-18.493 1.147-22.321 9.171-2.421 4.137-1.432 9.037-1.432 13.585-8.929-4.757-18.041-9.104-27.079-13.661 21.517-10.695 42.976-21.491 64.484-32.179 2.697-1.449 5.947-1.491 8.635 9e-3 21.526 10.712 43.018 21.5 64.543 32.229-8.987 4.565-18.1 8.903-27.028 13.627m29.8 196.49c-21.776 10.721-43.469 21.6-65.137 32.522-3.417 1.918-7.622 3.183-11.257 1.047-22.43-11.106-44.742-22.413-67.181-33.502 0-18.72 3.342-112.64 3.317-131.36h0.193l-0.143-0.075c5.696-2.898 26.995-14.138 44.098-23.184 2.094-1.298 4.632-2.839 6.374-3.727 4.062-1.926 7.999-4.062 12.044-6.014 1.349-0.711 2.454-1.298 3.241-1.717l0.31 0.134c2.228-0.67 4.707-0.343 6.826 0.62 5.26 2.421 10.328 5.243 15.562 7.723 2.22 1.155 5.83 3.609 7.446 4.732 10.244 5.394 33.318 17.22 41.753 21.492-0.243 0.109-0.478 0.234-0.729 0.36 0 19.44 3.359 112.36 3.283 130.94m79.435-153.44c-0.034 11.918 0.335 106.87-0.285 111.3-0.528 2.798-3.334 4.129-5.595 5.369-21.969 10.829-43.838 21.869-65.774 32.799-8e-3 -14.247 9e-3 -93.179 0-130.72l-41.074-22.254c-2.663-1.215-5.452-2.404-7.555-3.091 7.79-0.511 15.546-1.365 23.151-3.124 6.608-1.976 13.082-4.472 19.13-7.839-1.709-1.893-3.46-3.769-5.202-5.637-7.881 3.92-16.341 6.524-24.984 8.015-7.404 0.486-14.875 0.771-22.212-0.402-2.614-0.502-5.21-1.089-7.773-1.817 7.898-3.242 15.085-7.806 21.475-13.426 14.113-7.538 28.611-14.406 42.917-21.609 23.552 11.742 47.317 24.264 70.777 36.166 1.639 1.261 2.417 2.834 2.573 5.531 0.454 7.864 0.431 10.734 0.431 10.734zm-193.86-15.168c-8.736-1.424-17.288-4.046-25.203-8.083-1.75 1.943-3.484 3.903-5.159 5.897 6.148 3.099 12.53 5.737 19.155 7.647 7.622 1.792 15.394 2.579 23.192 3.115-6.508 2.144-18.862 7.245-18.862 7.245l-30.01 17.095c-8e-3 39.114 0.042 117.78-0.025 131.8-22.053-10.888-43.972-22.019-66.025-32.874-2.538-1.307-5.636-2.915-5.913-6.106-0.536-4.389 0.687-116 0.653-120.4 0.478-3.568 1.851-7.036 5.177-8.434 22.915-11.366 45.739-22.891 68.654-34.223 14.331 7.195 28.838 14.096 42.993 21.617 6.591 5.855 14.154 10.361 22.212 13.879-10.177 1.784-20.504 2.982-30.839 1.826" fill-rule="nonzero"/>
        </g>
        <g transform="translate(-168.41 -446.14)">
            <path d="m220.33 328.58c0-1.064-0.863-1.918-1.918-1.918-1.056 0-1.918 0.854-1.918 1.918v8.434c0 1.064 0.862 1.918 1.918 1.918 1.055 0 1.918-0.854 1.918-1.918v-8.434z" fill-rule="nonzero"/>
        </g>
        <g transform="translate(-168.41 -403.36)">
            <path d="m220.33 305.25c0-1.064-0.863-1.918-1.918-1.918-1.056 0-1.918 0.854-1.918 1.918v14.255c0.636-8e-3 1.281-0.017 1.918-0.017 0.645 0 1.281 9e-3 1.918 0.017v-14.255z" fill-rule="nonzero"/>
        </g>
        <g transform="translate(-168.41 -290.89)">
            <path d="m348.99 261.97 10.126-10.126c0.746-0.754 0.746-1.96 0-2.714-0.753-0.746-1.968-0.746-2.713 0l-10.126 10.126c0.443 0.444 0.904 0.879 1.348 1.332 0.461 0.46 0.913 0.913 1.365 1.382" fill-rule="nonzero"/>
        </g>
        <g transform="translate(-168.41 -321.79)">
            <path d="m364.18 272.25c-0.753 0.754-0.753 1.968 0 2.713 0.746 0.754 1.96 0.754 2.714 0l5.964-5.963c0.745-0.754 0.745-1.96 0-2.714-0.754-0.745-1.96-0.745-2.714 0l-5.964 5.964z" fill-rule="nonzero"/>
        </g>
        <g transform="translate(-168.41 -21.588)">
            <path d="m1.918 118.61c-1.064 0-1.918 0.871-1.918 1.918 0 1.064 0.854 1.927 1.918 1.927h8.434c1.064 0 1.918-0.863 1.918-1.927 0-1.047-0.854-1.918-1.918-1.918h-8.434z" fill-rule="nonzero"/>
        </g>
        <g transform="translate(-168.41 -21.588)">
            <path d="m21.352 118.61c-1.064 0-1.918 0.871-1.918 1.918 0 1.064 0.854 1.927 1.918 1.927h14.347c-8e-3 -0.637-0.016-1.274-0.016-1.927 0-0.636 8e-3 -1.281 0.016-1.918h-14.347z" fill-rule="nonzero"/>
        </g>
        <g transform="translate(-168.41 -21.59)">
            <path d="m401.12 122.45h14.356c1.055 0 1.91-0.863 1.91-1.918 0-1.056-0.855-1.927-1.91-1.927h-14.356c8e-3 0.637 0.017 1.282 0.017 1.927s-9e-3 1.281-0.017 1.918" fill-rule="nonzero"/>
        </g>
        <g transform="translate(-168.41 -21.588)">
            <path d="m426.47 118.61c-1.055 0-1.918 0.871-1.918 1.918 0 1.064 0.863 1.927 1.918 1.927h8.434c1.064 0 1.918-0.863 1.918-1.927 0-1.047-0.854-1.918-1.918-1.918h-8.434z" fill-rule="nonzero"/>
        </g>
        <g transform="translate(-168.41 -321.8)">
            <path d="m66.682 266.29c-0.746-0.754-1.96-0.754-2.714 0-0.745 0.754-0.745 1.96 0 2.714l5.972 5.963c0.745 0.754 1.96 0.754 2.713 0 0.746-0.745 0.746-1.96 0-2.713l-5.971-5.964z" fill-rule="nonzero"/>
        </g>
        <g transform="translate(-168.41 -290.92)">
            <path d="m80.431 249.16c-0.754-0.745-1.968-0.745-2.714 0-0.753 0.754-0.753 1.96 0 2.714l10.101 10.101c0.461-0.461 0.905-0.921 1.374-1.39 0.444-0.436 0.888-0.88 1.332-1.324l-10.093-10.101z" fill-rule="nonzero"/>
        </g>
        <g transform="translate(-168.41 -95.828)">
            <path d="m411.78 158.26c1.038-0.201 1.717-1.214 1.524-2.253-0.209-1.039-1.214-1.717-2.253-1.508l-13.761 2.731c0.26 1.248 0.502 2.513 0.737 3.769l13.753-2.739z" fill-rule="nonzero"/>
        </g>
        <g transform="translate(-168.41 52.664)">
            <path d="m38.798 80.048-13.752 2.738c-1.039 0.201-1.717 1.215-1.508 2.253 0.193 1.039 1.206 1.717 2.245 1.508l13.769-2.73c-0.268-1.248-0.511-2.513-0.754-3.769" fill-rule="nonzero"/>
        </g>
        <g transform="translate(-168.41 -233.04)">
            <path d="m67.508 228.85-11.643-7.781c-0.879-0.586-2.068-0.352-2.655 0.528-0.586 0.879-0.351 2.069 0.52 2.655l11.65 7.781c0.695-1.072 1.407-2.128 2.128-3.183" fill-rule="nonzero"/>
        </g>
        <g transform="translate(-168.41 -395.61)">
            <path d="m184.63 314.86-2.722-13.669c-0.201-1.039-1.214-1.717-2.253-1.508-1.039 0.193-1.717 1.206-1.508 2.237l2.722 13.685c1.24-0.259 2.505-0.51 3.761-0.745" fill-rule="nonzero"/>
        </g>
        <g transform="translate(-168.41 -338.29)">
            <path d="m321.55 286.32 7.781-11.642c0.586-0.871 0.352-2.061-0.528-2.647-0.871-0.595-2.068-0.36-2.655 0.519l-7.772 11.634c1.064 0.704 2.127 1.415 3.174 2.136" fill-rule="nonzero"/>
        </g>
        <g transform="translate(-168.41 -233.03)">
            <path d="m371.43 232.03 11.667-7.798c0.88-0.586 1.114-1.775 0.528-2.655-0.586-0.879-1.784-1.114-2.655-0.527l-11.667 7.797c0.72 1.047 1.432 2.111 2.127 3.183" fill-rule="nonzero"/>
        </g>
        <g transform="translate(-168.41 52.661)">
            <path d="m411.05 86.553c1.038 0.201 2.044-0.477 2.253-1.516 0.193-1.039-0.486-2.052-1.524-2.245l-13.762-2.738c-0.226 1.256-0.477 2.512-0.745 3.769l13.778 2.73z" fill-rule="nonzero"/>
        </g>
        <g transform="translate(-168.41 -95.83)">
            <path d="m39.542 157.24-13.761-2.73c-1.039-0.21-2.052 0.469-2.245 1.507-0.209 1.047 0.478 2.052 1.516 2.253l13.745 2.739c0.234-1.265 0.486-2.521 0.745-3.769" fill-rule="nonzero"/>
        </g>
        <g transform="translate(-168.41 -338.32)">
            <path d="m118.44 284.2-7.764-11.617c-0.586-0.879-1.775-1.122-2.646-0.519-0.888 0.578-1.114 1.775-0.528 2.647l7.764 11.617c1.047-0.721 2.111-1.433 3.174-2.128" fill-rule="nonzero"/>
        </g>
        <g transform="translate(-168.41 -395.61)">
            <path d="m255.97 315.61 2.714-13.694c0.209-1.03-0.469-2.044-1.508-2.236-1.038-0.21-2.052 0.469-2.253 1.507l-2.713 13.678c1.256 0.226 2.512 0.485 3.76 0.745" fill-rule="nonzero"/>
        </g>
        <g transform="translate(-168.41 -291.96)">
            <path d="m144.75 208.07c-0.402-0.98-1.516-1.441-2.496-1.039-0.971 0.402-1.449 1.524-1.038 2.496l5.452 13.175c1.173-0.503 2.354-0.988 3.535-1.466l-5.453-13.166zm-7.421-17.924c-0.402-0.972-1.515-1.441-2.495-1.039s-1.441 1.525-1.047 2.496l3.216 7.764c0.402 0.972 1.524 1.441 2.496 1.039 0.98-0.402 1.449-1.524 1.047-2.504l-3.217-7.756zm-100.29 123.55c-0.98-0.402-2.094 0.067-2.496 1.047-0.402 0.979 0.067 2.093 1.047 2.495l13.217 5.478c0.477-1.181 0.963-2.362 1.465-3.534l-13.233-5.486zm-17.916-7.413c-0.979-0.402-2.102 0.059-2.504 1.039s0.067 2.094 1.047 2.496l7.756 3.208c0.971 0.402 2.094-0.067 2.496-1.039 0.402-0.98-0.067-2.102-1.039-2.504l-7.756-3.2zm390.82 3.2c-0.979 0.41-1.448 1.524-1.046 2.504s1.524 1.441 2.504 1.039l7.756-3.208c0.971-0.402 1.44-1.516 1.038-2.496s-1.524-1.441-2.496-1.039l-7.756 3.2zm-21.944 13.233 13.234-5.478c0.971-0.402 1.449-1.516 1.038-2.495-0.402-0.98-1.516-1.449-2.496-1.047l-13.241 5.494c0.502 1.164 0.988 2.345 1.465 3.526m-91.721-124.81c-0.41 0.98 0.067 2.102 1.039 2.504 0.979 0.402 2.093-0.067 2.504-1.039l3.199-7.764c0.402-0.971-0.058-2.094-1.038-2.496s-2.094 0.067-2.496 1.039l-3.208 7.756zm-6.139 24.817 5.469-13.192c0.402-0.972-0.067-2.094-1.039-2.496-0.98-0.402-2.102 0.059-2.504 1.039l-5.461 13.183c1.181 0.477 2.37 0.963 3.535 1.466" fill-rule="nonzero"/>
        </g>
    </g>
</svg>
