<?xml version="1.0" encoding="UTF-8"?>
<!DOCTYPE svg  PUBLIC '-//W3C//DTD SVG 1.1//EN'  'http://www.w3.org/Graphics/SVG/1.1/DTD/svg11.dtd'>
<svg clip-rule="evenodd" fill-rule="evenodd" stroke-linejoin="round" stroke-miterlimit="2" version="1.1" viewBox="0 0 100 100" xml:space="preserve" xmlns="http://www.w3.org/2000/svg">
    <g transform="matrix(.22098 0 0 .22098 .5 -6.5714)">
        <path d="m64 32c-35.3 0-64 28.7-64 64v320c0 35.3 28.7 64 64 64h320c35.3 0 64-28.7 64-64v-320c0-35.3-28.7-64-64-64h-320zm297.1 84-103.8 118.6 122.1 161.4h-95.6l-74.8-97.9-85.7 97.9h-47.5l111-126.9-117.1-153.1h98l67.7 89.5 78.2-89.5h47.5zm-37.8 251.6-169.9-224.7h-28.3l171.8 224.7h26.4z" fill="#f9fafb" fill-rule="nonzero" stroke="#f9fafb" stroke-width="1px"/>
    </g>
</svg>
